# xmcd
#
# Track frame offsets:
# 150
# 14503
# 28872
# 40573
# 53670
# 66570
# 79813
# 91498
# 105845
# 118088
# 132558
# 146615
#
# Disc length: 2144 seconds
#
#
# Revision: 1
# Processed by: cddbd v1.5.1PL2 Copyright (c) Steve Scherf et al.
# Submitted via: FreeRIP 2.944 
#
DISCID=a3085e0c
DTITLE=Alberto Vázquez - Cosas
DYEAR=1995
DGENRE=Rhythmic Soul
TTITLE0=Cosas
TTITLE1=Anoche No Dormi
TTITLE2=Dile Adios
TTITLE3=Tus Ojos
TTITLE4=Te He Prometido
TTITLE5=Olvidalo
TTITLE6=Cuando Apenas Era Un Jovencito
TTITLE7=Dame Felicidad
TTITLE8=Creo Estar Soñando
TTITLE9=El Último Beso
TTITLE10=Para Decir Adios
TTITLE11=Gotas De Lluvia
EXTD=YEAR: 1995
EXTT0=
EXTT1=
EXTT2=
EXTT3=
EXTT4=
EXTT5=
EXTT6=
EXTT7=
EXTT8=
EXTT9=
EXTT10=
EXTT11=
PLAYORDER=
